<svg width="32" height="32" viewBox="0 0 32 32" fill="none" xmlns="http://www.w3.org/2000/svg">
  <!-- TBWA Scout Logo -->
  <rect width="32" height="32" rx="8" fill="#003865"/>
  
  <!-- Scout 'S' Letter -->
  <path d="M8 12C8 10.8954 8.89543 10 10 10H14C15.1046 10 16 10.8954 16 12V12C16 13.1046 15.1046 14 14 14H12C10.8954 14 10 14.8954 10 16V16C10 17.1046 10.8954 18 12 18H16" 
        stroke="#FFC72C" 
        stroke-width="2" 
        stroke-linecap="round"/>
  
  <!-- Analytics Chart Elements -->
  <rect x="19" y="14" width="2" height="8" fill="#FFC72C" rx="1"/>
  <rect x="22" y="11" width="2" height="11" fill="#FFC72C" rx="1"/>
  <rect x="25" y="9" width="2" height="13" fill="#FFC72C" rx="1"/>
  <rect x="28" y="12" width="2" height="10" fill="#FFC72C" rx="1"/>
  
  <!-- Connection dots -->
  <circle cx="20" cy="14" r="1" fill="#FFFFFF"/>
  <circle cx="23" cy="11" r="1" fill="#FFFFFF"/>
  <circle cx="26" cy="9" r="1" fill="#FFFFFF"/>
  <circle cx="29" cy="12" r="1" fill="#FFFFFF"/>
</svg>